<svg width="22" height="37" viewBox="0 0 22 37" fill="none" xmlns="http://www.w3.org/2000/svg">
<path d="M20.6762 0.273227C18.9109 0.0859575 17.1367 -0.00517688 15.3615 0.000226866C9.47625 0.000226866 5.81875 3.74873 5.81875 9.78273V13.8795H0.875C0.642936 13.8795 0.420375 13.9717 0.256281 14.1358C0.0921866 14.2999 0 14.5224 0 14.7545V21.492C0 21.724 0.0921866 21.9466 0.256281 22.1107C0.420375 22.2748 0.642936 22.367 0.875 22.367H5.81875V35.877C5.81875 36.109 5.91094 36.3316 6.07503 36.4957C6.23912 36.6598 6.46169 36.752 6.69375 36.752H13.6552C13.8873 36.752 14.1099 36.6598 14.274 36.4957C14.4381 36.3316 14.5302 36.109 14.5302 35.877V22.367H19.4583C19.6707 22.3671 19.8759 22.2899 20.0356 22.1498C20.1953 22.0098 20.2986 21.8164 20.3263 21.6057L21.196 14.8682C21.2122 14.7447 21.2018 14.6192 21.1656 14.5C21.1294 14.3809 21.0682 14.2708 20.986 14.1772C20.9038 14.0836 20.8026 14.0086 20.6891 13.9573C20.5757 13.9059 20.4525 13.8794 20.328 13.8795H14.5302V10.4512C14.5302 8.75373 14.8715 8.04498 16.9942 8.04498H20.5625C20.7946 8.04498 21.0171 7.95279 21.1812 7.7887C21.3453 7.6246 21.4375 7.40204 21.4375 7.16998V1.14123C21.4376 0.928791 21.3604 0.723573 21.2203 0.563859C21.0803 0.404145 20.8869 0.300843 20.6762 0.273227ZM19.6875 6.29323L16.9925 6.29498C13.2177 6.29498 12.7802 8.66798 12.7802 10.4512V14.7562C12.7802 14.988 12.8722 15.2103 13.0359 15.3743C13.1996 15.5384 13.4217 15.6308 13.6535 15.6312H19.334L18.6882 20.6187H13.6552C13.4232 20.6187 13.2006 20.7109 13.0365 20.875C12.8724 21.0391 12.7802 21.2617 12.7802 21.4937V35.0002H7.56875V21.4937C7.56875 21.2617 7.47656 21.0391 7.31247 20.875C7.14837 20.7109 6.92581 20.6187 6.69375 20.6187H1.75175V15.6312H6.69375C6.92581 15.6312 7.14837 15.539 7.31247 15.3749C7.47656 15.2109 7.56875 14.9883 7.56875 14.7562V9.78273C7.56875 4.75323 10.4825 1.75023 15.3615 1.75023C17.1272 1.75023 18.7215 1.84648 19.6875 1.93048V6.29323Z" fill="white"/>
</svg>
