<svg aria-hidden="true" style="position: absolute; width: 0; height: 0; overflow: hidden;" version="1.1" xmlns="http://www.w3.org/2000/svg" xmlns:xlink="http://www.w3.org/1999/xlink">
<defs>
<symbol id="icon-arrow" viewBox="0 0 38 32">
<path d="M0.624 17.218c-0.833-0.833-0.833-2.184 0-3.017l13.576-13.576c0.833-0.833 2.184-0.833 3.017 0s0.833 2.184 0 3.017l-12.068 12.068 12.068 12.068c0.833 0.833 0.833 2.184 0 3.017s-2.184 0.833-3.017 0l-13.576-13.576zM37.892 17.843l-35.759 0v-4.267l35.759-0v4.267z"></path>
</symbol>
<symbol id="icon-instagram" viewBox="0 0 32 32">
<path d="M15.591 8.273c-1.447 0-2.862 0.429-4.066 1.233s-2.141 1.947-2.695 3.284c-0.554 1.337-0.699 2.809-0.416 4.228s0.979 2.724 2.003 3.747c1.023 1.023 2.327 1.72 3.747 2.003s2.891 0.137 4.228-0.416 2.48-1.492 3.284-2.695c0.804-1.203 1.233-2.618 1.233-4.066 0-1.941-0.771-3.802-2.143-5.175s-3.234-2.143-5.175-2.143zM15.591 21c-1.070 0-2.116-0.317-3.005-0.912s-1.583-1.439-1.992-2.428c-0.409-0.988-0.517-2.076-0.308-3.125s0.724-2.013 1.48-2.77 1.72-1.272 2.77-1.48c1.049-0.209 2.137-0.102 3.125 0.308s1.833 1.103 2.428 1.992c0.594 0.889 0.912 1.935 0.912 3.005-0.004 1.433-0.575 2.807-1.589 3.82s-2.387 1.585-3.82 1.589zM22.591 0h-14c-2.278 0-4.464 0.905-6.075 2.516s-2.516 3.796-2.516 6.075v14c0 2.278 0.905 4.463 2.516 6.075s3.796 2.516 6.075 2.516h14c2.278 0 4.463-0.905 6.075-2.516s2.516-3.796 2.516-6.075v-14c0-2.278-0.905-4.464-2.516-6.075s-3.796-2.516-6.075-2.516zM29.273 22.591c0 1.772-0.704 3.472-1.957 4.725s-2.953 1.957-4.725 1.957h-14c-1.772 0-3.472-0.704-4.725-1.957s-1.957-2.953-1.957-4.725v-14c0-1.772 0.704-3.472 1.957-4.725s2.953-1.957 4.725-1.957h14c1.772 0 3.472 0.704 4.725 1.957s1.957 2.953 1.957 4.725v14zM25.455 7.318c0 0.315-0.093 0.622-0.268 0.884s-0.423 0.466-0.714 0.586c-0.291 0.12-0.611 0.152-0.919 0.091s-0.592-0.213-0.815-0.435c-0.223-0.223-0.374-0.506-0.435-0.815s-0.030-0.628 0.090-0.919c0.12-0.291 0.324-0.539 0.586-0.714s0.569-0.268 0.884-0.268c0.422 0 0.827 0.168 1.125 0.466s0.466 0.703 0.466 1.125z"></path>
</symbol>
<symbol id="icon-facebook" viewBox="0 0 19 32">
<path d="M17.882 0.236c-1.527-0.162-3.061-0.241-4.596-0.236-5.090 0-8.253 3.242-8.253 8.461v3.543h-4.276c-0.201 0-0.393 0.080-0.535 0.222s-0.222 0.334-0.222 0.535v5.827c0 0.201 0.080 0.393 0.222 0.535s0.334 0.222 0.535 0.222h4.276v11.684c0 0.201 0.080 0.393 0.222 0.535s0.334 0.222 0.535 0.222h6.021c0.201 0 0.393-0.080 0.535-0.222s0.222-0.334 0.222-0.535v-11.684h4.262c0.184 0 0.361-0.067 0.499-0.188s0.227-0.288 0.251-0.471l0.752-5.827c0.014-0.107 0.005-0.215-0.026-0.318s-0.084-0.198-0.155-0.279-0.159-0.146-0.257-0.19c-0.098-0.044-0.205-0.067-0.312-0.067h-5.014v-2.965c0-1.468 0.295-2.081 2.131-2.081h3.086c0.201 0 0.393-0.080 0.535-0.222s0.222-0.334 0.222-0.535v-5.214c0-0.184-0.067-0.361-0.188-0.499s-0.288-0.227-0.471-0.251zM17.027 5.443l-2.331 0.002c-3.265 0-3.643 2.052-3.643 3.595v3.723c0 0.2 0.080 0.393 0.221 0.535s0.334 0.222 0.534 0.222h4.913l-0.559 4.313h-4.353c-0.201 0-0.393 0.080-0.535 0.222s-0.222 0.334-0.222 0.535v11.681h-4.507v-11.681c0-0.201-0.080-0.393-0.222-0.535s-0.334-0.222-0.535-0.222h-4.274v-4.314h4.274c0.201 0 0.393-0.080 0.535-0.222s0.222-0.334 0.222-0.535v-4.301c0-4.35 2.52-6.947 6.74-6.947 1.527 0 2.906 0.083 3.741 0.156v3.773z"></path>
</symbol>
<symbol id="icon-telefon" viewBox="0 0 28 32">
<path d="M26.209 23.222l-0.182-0.227c-1.441-1.821-2.645-2.769-3.678-2.894-0.893-0.122-1.757 0.496-2.675 1.131l-0.981 0.613c-0.118 0.059-0.234 0.106-0.343 0.139-0.574 0.162-2.023 0.258-2.843-0.493-0.955-0.874-2.436-2.472-3.588-3.87-1.1-1.446-2.31-3.249-2.941-4.385-0.533-0.962-0.087-2.307 0.211-2.806 0.059-0.098 0.136-0.195 0.221-0.29l0.865-0.799c0.013-0.013 0.018-0.028 0.029-0.039 0.008-0.008 0.022-0.006 0.032-0.013 0.781-0.659 1.589-1.338 1.7-2.211 0.13-1.025-0.507-2.411-1.95-4.231l-0.176-0.227c-0.893-1.145-2.244-2.877-4.185-2.591-0.763 0.113-1.445 0.374-2.148 0.815-0.007 0.004-0.011 0.013-0.017 0.017s-0.013 0.004-0.018 0.008l-0.979 0.725c-0.010 0.006-0.015 0.018-0.025 0.027-0.007 0.007-0.018 0.008-0.027 0.015-0.113 0.095-0.227 0.193-0.339 0.294-0.993 0.885-3.142 3.454-1.676 8.205 0.946 3.069 2.898 6.65 5.657 10.377l-0.027 0.022 1.522 1.896 0.013-0.010c2.992 3.539 6.037 6.275 8.827 7.931 1.862 1.106 3.489 1.471 4.827 1.471 1.761 0 3.023-0.633 3.655-1.044l0.398-0.266c0.045-0.031 0.077-0.074 0.109-0.113l0.867-0.652c0.010-0.008 0.015-0.020 0.025-0.028 0.004-0.004 0.011-0.003 0.017-0.007 0.616-0.563 1.043-1.152 1.34-1.851 0.769-1.791-0.608-3.506-1.518-4.641zM26.698 27.424c-0.231 0.543-0.568 1.005-1.056 1.453l-1.289 0.97c-1.168 0.759-3.664 1.697-7.29-0.456-2.79-1.656-5.862-4.456-8.884-8.098l-0.818-1.033c-2.846-3.774-4.848-7.389-5.793-10.452-1.228-3.983 0.319-6.119 1.355-7.042 0.105-0.095 0.21-0.183 0.314-0.272l0.004-0.004 0.939-0.696c0.571-0.361 1.1-0.563 1.709-0.655 1.301-0.196 2.359 1.176 3.136 2.173l0.182 0.231c1.613 2.034 1.768 3.002 1.718 3.396-0.056 0.438-0.722 1-1.31 1.494l-0.083 0.070c-0.003 0.003-0.004 0.007-0.007 0.010-0.004 0.003-0.008 0.004-0.013 0.007l-0.895 0.827c-0.006 0.006-0.008 0.013-0.014 0.020s-0.017 0.010-0.022 0.017c-0.139 0.155-0.258 0.311-0.354 0.472-0.503 0.841-0.977 2.58-0.228 3.926 0.654 1.176 1.898 3.034 3.042 4.535 1.196 1.45 2.72 3.097 3.709 4 0.741 0.676 1.771 0.903 2.663 0.903 0.477 0 0.916-0.066 1.247-0.16 0.175-0.050 0.356-0.123 0.542-0.214 0.011-0.006 0.017-0.015 0.028-0.022 0.006-0.003 0.014-0.001 0.020-0.006l1.039-0.65c0.034-0.022 0.056-0.052 0.084-0.080l0.013 0.014c0.64-0.444 1.369-0.965 1.826-0.889 0.405 0.049 1.323 0.438 2.939 2.478l0.186 0.234c0.787 0.981 1.865 2.325 1.362 3.5z"></path>
</symbol>
</defs>
</svg>
