<svg width="35" height="40" viewBox="0 0 35 40" fill="none" xmlns="http://www.w3.org/2000/svg">
<path d="M32.7614 29.0279L32.5339 28.7444C30.7331 26.4676 29.2281 25.2829 27.9366 25.1271C26.8201 24.9749 25.7404 25.7466 24.5924 26.5411L23.3656 27.3076C23.2186 27.3811 23.0734 27.4406 22.9369 27.4809C22.2194 27.6839 20.4081 27.8029 19.3826 26.8649C18.1891 25.7729 16.3376 23.7744 14.8974 22.0279C13.5219 20.2201 12.0099 17.9661 11.2206 16.5469C10.5539 15.3446 11.1121 13.6629 11.4849 13.0399C11.5584 12.9174 11.6546 12.7966 11.7614 12.6776L12.8429 11.6784C12.8586 11.6626 12.8656 11.6434 12.8796 11.6294C12.8901 11.6189 12.9076 11.6224 12.9199 11.6136C13.8964 10.7894 14.9061 9.94065 15.0444 8.8504C15.2071 7.5694 14.4109 5.8369 12.6066 3.5619L12.3861 3.2784C11.2696 1.8469 9.58088 -0.317853 7.15538 0.0391465C6.20163 0.180897 5.34938 0.506397 4.47088 1.05765C4.46213 1.0629 4.45688 1.0734 4.44988 1.07865C4.44288 1.0839 4.43413 1.0839 4.42713 1.08915L3.20388 1.99565C3.19163 2.00265 3.18463 2.0184 3.17238 2.0289C3.16363 2.03765 3.14963 2.0394 3.13913 2.04815C2.99738 2.16715 2.85563 2.28965 2.71563 2.41565C1.47488 3.52165 -1.21137 6.7329 0.620881 12.6724C1.80388 16.5084 4.24338 20.9849 7.69263 25.6434L7.65938 25.6714L9.56163 28.0409L9.57738 28.0286C13.3171 32.4526 17.1234 35.8721 20.6111 37.9424C22.9386 39.3249 24.9721 39.7816 26.6451 39.7816C28.8466 39.7816 30.4234 38.9906 31.2144 38.4761L31.7114 38.1436C31.7674 38.1051 31.8076 38.0509 31.8479 38.0019L32.9311 37.1864C32.9434 37.1759 32.9504 37.1619 32.9626 37.1514C32.9679 37.1461 32.9766 37.1479 32.9836 37.1426C33.7536 36.4391 34.2874 35.7024 34.6584 34.8291C35.6191 32.5909 33.8989 30.4471 32.7614 29.0279ZM33.3721 34.2796C33.0834 34.9586 32.6616 35.5361 32.0526 36.0961L30.4409 37.3089C28.9814 38.2574 25.8611 39.4299 21.3286 36.7384C17.8409 34.6681 14.0014 31.1681 10.2231 26.6164L9.20113 25.3249C5.64338 20.6069 3.14088 16.0884 1.95963 12.2594C0.424881 7.28065 2.35863 4.61015 3.65363 3.4569C3.78488 3.3379 3.91613 3.22765 4.04563 3.1174L4.05088 3.11215L5.22513 2.2424C5.93913 1.7909 6.60063 1.5389 7.36188 1.4234C8.98763 1.1784 10.3106 2.8934 11.2819 4.1394L11.5094 4.42815C13.5254 6.9709 13.7196 8.18015 13.6566 8.67365C13.5866 9.2214 12.7536 9.92315 12.0186 10.5409L11.9154 10.6284C11.9119 10.6319 11.9101 10.6371 11.9066 10.6406C11.9014 10.6441 11.8961 10.6459 11.8909 10.6494L10.7726 11.6836C10.7656 11.6906 10.7621 11.6994 10.7551 11.7081C10.7481 11.7169 10.7341 11.7204 10.7271 11.7291C10.5539 11.9234 10.4051 12.1176 10.2844 12.3189C9.65613 13.3706 9.06288 15.5441 9.99913 17.2259C10.8164 18.6959 12.3721 21.0181 13.8019 22.8941C15.2964 24.7071 17.2021 26.7651 18.4376 27.8939C19.3634 28.7391 20.6514 29.0226 21.7661 29.0226C22.3629 29.0226 22.9106 28.9404 23.3254 28.8231C23.5441 28.7601 23.7699 28.6691 24.0026 28.5554C24.0166 28.5484 24.0236 28.5361 24.0376 28.5274C24.0446 28.5239 24.0551 28.5256 24.0621 28.5204L25.3606 27.7084C25.4026 27.6804 25.4306 27.6436 25.4656 27.6086L25.4814 27.6261C26.2811 27.0714 27.1929 26.4204 27.7634 26.5149C28.2691 26.5761 29.4171 27.0626 31.4366 29.6124L31.6694 29.9046C32.6529 31.1314 34.0004 32.8114 33.3721 34.2796Z" fill="white"/>
</svg>
